<svg xmlns="http://www.w3.org/2000/svg" viewBox="0 0 600 800" preserveAspectRatio="xMidYMid slice">
  <defs>
    <linearGradient id="g3" x1="0" y1="0" x2="0" y2="1">
      <stop offset="0%" stop-color="#0c1a30"/>
      <stop offset="50%" stop-color="#1a3a5c"/>
      <stop offset="100%" stop-color="#0ea5e9"/>
    </linearGradient>
    <radialGradient id="glow3" cx="0.5" cy="0.7" r="0.6">
      <stop offset="0%" stop-color="rgba(0,245,255,0.25)"/>
      <stop offset="100%" stop-color="rgba(0,245,255,0)"/>
    </radialGradient>
    <radialGradient id="vignette3" cx="0.5" cy="0.5" r="0.7">
      <stop offset="55%" stop-color="rgba(0,0,0,0)"/>
      <stop offset="100%" stop-color="rgba(0,0,0,0.7)"/>
    </radialGradient>
  </defs>
  <rect width="600" height="800" fill="url(#g3)"/>
  <rect width="600" height="800" fill="url(#glow3)"/>
  <g opacity="0.4">
    <path d="M 0 600 Q 100 580, 200 600 T 400 600 T 600 600 L 600 620 L 0 620 Z" fill="rgba(0,245,255,0.1)"/>
    <path d="M 0 660 Q 100 640, 200 660 T 400 660 T 600 660 L 600 680 L 0 680 Z" fill="rgba(0,245,255,0.15)"/>
    <path d="M 0 720 Q 100 700, 200 720 T 400 720 T 600 720 L 600 740 L 0 740 Z" fill="rgba(0,245,255,0.2)"/>
  </g>
  <g opacity="0.6">
    <circle cx="80" cy="200" r="1.5" fill="white"/>
    <circle cx="320" cy="120" r="1" fill="white"/>
    <circle cx="480" cy="260" r="1.2" fill="white"/>
    <circle cx="180" cy="320" r="1" fill="white"/>
  </g>
  <rect width="600" height="800" fill="url(#vignette3)"/>
  <text x="300" y="400" text-anchor="middle" font-family="Georgia, serif" font-size="120" fill="rgba(243,229,216,0.18)" font-weight="400">III</text>
</svg>
